# xmcd CD database file
#
# Track frame offsets:
#	150
#	16847
#	31597
#	42815
#	57015
#	68317
#	79050
#	94415
#	110387
#	124847
#	135145
#	149350
#	162695
#	185100
#	205560
#
# Disc length: 3005 seconds
#
# Revision: 0
# Processed by: cddbd v1.5.1PL0 Copyright (c) Steve Scherf et al.
# Submitted via: CDex 1.51
#
DISCID=bd0bbb0f
DTITLE=フォーク・オムニバス - 懐かしのファーク&ポップス大全集 Disc 2
DYEAR=1900
DGENRE=Pop
TTITLE0=知らず知らずのうちに
TTITLE1=さすらい人の子守唄
TTITLE2=空よ
TTITLE3=夜が明けたら
TTITLE4=宝くじは買わない
TTITLE5=家をつくるなら
TTITLE6=月光仮面”川内康範原作、講談社版より”
TTITLE7=春は静かに通り過ぎてゆく
TTITLE8=学生街の喫茶店
TTITLE9=太陽がくれた季節
TTITLE10=魔法の黄色い靴
TTITLE11=白いギター
TTITLE12=からっぽの世界
TTITLE13=初夏
TTITLE14=雨やどり
EXTD=
EXTT0=
EXTT1=
EXTT2=
EXTT3=
EXTT4=
EXTT5=
EXTT6=
EXTT7=
EXTT8=
EXTT9=
EXTT10=
EXTT11=
EXTT12=
EXTT13=
EXTT14=
PLAYORDER=
